<svg version="1.1" id="Layer_1" xmlns="http://www.w3.org/2000/svg" xmlns:xlink="http://www.w3.org/1999/xlink" x="0px" y="0px" viewBox="0 0 100 100" xml:space="preserve"><desc>Copyright Opto 22</desc> <svg><g>
<g id="frame">
	<rect fill="none" width="100" height="100"></rect>
</g>
<g id="shape">
	<polygon fill="#a9d1f9" points="98.285,25 75,11.556 75,0 25,0 25,11.556 1.715,25 	"></polygon>

</g>
<g id="dark">
	<polygon fill="#7dabd8" points="27,0 25,0 25,11.556 1.715,25 1.715,25 5.88,25 27,12.806 	"></polygon>
	<polygon fill="#7dabd8" points="98.285,25 75,11.556 75,0 73,0 73,12.806 94.12,25 98.285,25 	"></polygon>
	<polygon fill="#7dabd8" points="34.25,9.056 32.25,16.556 17.625,25 21.79,25 34.25,17.806 	"></polygon>
	<polygon fill="#7dabd8" points="65.75,9.056 65.75,17.806 78.21,25 82.375,25 67.75,16.556 	"></polygon>
	<polygon fill="#7dabd8" points="45.678,11.556 43.678,19.056 33.384,25 37.549,25 45.678,20.306 	"></polygon>
	<polygon fill="#7dabd8" points="54.322,11.556 54.322,20.306 62.451,25 66.616,25 56.322,19.056 	"></polygon>

</g>
</g></svg></svg>