<svg version="1.1" id="Layer_1" xmlns="http://www.w3.org/2000/svg" xmlns:xlink="http://www.w3.org/1999/xlink" x="0px" y="0px" viewBox="0 0 100 100" xml:space="preserve"><desc>Copyright Opto 22</desc> <svg><g>
	<g id="frame">
		<rect y="0" fill="none" width="100" height="100"></rect>
	</g>
	<g id="shape">
		<polygon fill="#006837" points="42,42 0,42 0,58 42,58 42,100 58,100 58,0 42,0 		"></polygon>
	</g>
	<g id="dark">
		<polygon fill="#009245" points="43,43 0,43 0,57 43,57 43,100 57,100 57,0 43,0 		"></polygon>
	</g>
	<g id="light">
		<polygon fill="#96D48D" points="45,45 0,45 0,55 45,55 45,100 55,100 55,0 45,0 		"></polygon>
	</g>
	<g id="hlight">
		<polygon fill="#FFFFFF" points="46.5,46.5 0,46.5 0,53.5 46.5,53.5 46.5,100 53.5,100 53.5,0 46.5,0 		"></polygon>
	</g>
</g></svg></svg>