<svg version="1.1" id="Layer_1" xmlns="http://www.w3.org/2000/svg" xmlns:xlink="http://www.w3.org/1999/xlink" x="0px" y="0px" viewBox="0 0 100 100" xml:space="preserve"><desc>Copyright Opto 22</desc> <svg><g>
	<g id="frame">
		<rect x="0" y="0" fill="none" width="100" height="100"></rect>
	</g>
	<g id="shape">
		<polygon fill="#a9d1f9" points="42,58 42,100 58,100 58,58 100,58 100,42 0,42 0,58 		"></polygon>
	</g>
	<g id="dark">
		<polygon fill="#7dabd8" points="43,57 43,100 57,100 57,57 100,57 100,43 0,43 0,57 		"></polygon>
	</g>
	<g id="light">
		<polygon fill="#c6e2ff" points="45,55 45,100 55,100 55,55 100,55 100,45 0,45 0,55 		"></polygon>
	</g>
	<g id="hlight">
		<polygon fill="#e0efff" points="46.5,53.5 46.5,100 53.5,100 53.5,53.5 100,53.5 100,46.5 0,46.5 0,53.5 		"></polygon>
	</g>
</g></svg></svg>