<svg version="1.1" id="Layer_1" xmlns="http://www.w3.org/2000/svg" xmlns:xlink="http://www.w3.org/1999/xlink" x="0px" y="0px" viewBox="0 0 100 100" xml:space="preserve"><desc>Copyright Opto 22</desc> <svg><g>
	<g id="frame">
		<rect x="0" fill="none" width="100" height="100"></rect>
	</g>
	<g id="shape">
		<path fill="#a9d1f9" d="M66,42h34v16H66c-4.4,0-8,3.6-8,8v34H42V66C42,52.8,52.8,42,66,42z"></path>
	</g>
	<g id="dark">
		<path fill="#7dabd8" d="M66,43h34v14H66c-5,0-9,4-9,9v34H43V66C43,53.3,53.3,43,66,43z"></path>
	</g>
	<g id="light">
		<path fill="#c6e2ff" d="M66,45h34v10H66c-6.1,0-11,4.9-11,11v34H45V66C45,54.4,54.4,45,66,45z"></path>
	</g>
	<g id="hlight">
		<path fill="#e0efff" d="M66,46.5h34v7H66c-6.9,0-12.5,5.6-12.5,12.5v34h-7V66C46.5,55.2,55.2,46.5,66,46.5z"></path>
	</g>
</g></svg></svg>