<svg version="1.1" id="Layer_1" xmlns="http://www.w3.org/2000/svg" xmlns:xlink="http://www.w3.org/1999/xlink" x="0px" y="0px" viewBox="0 0 100 100" xml:space="preserve"><desc>Copyright Opto 22</desc> <svg><g>
<g id="frame">
	<rect fill="none" width="100" height="100"></rect>
</g>
<g id="shape">

	<path fill="#a9d1f9" d="M34,58H0V42h34c4.411,0,8-3.589,8-8V0h16v34C58,47.234,47.234,58,34,58z"></path>

</g>
<g id="dark">
	<path fill="#7dabd8" d="M34,57H0V43h34c4.962,0,9-4.038,9-9V0h14v34C57,46.682,46.682,57,34,57z"></path>
</g>
<g id="light">
	<path fill="#c6e2ff" d="M34,55H0V45h34c6.065,0,11-4.935,11-11V0h10v34C55,45.58,45.58,55,34,55z"></path>
</g>
<g id="hlight">
	<path fill="#e0efff" d="M34,53.5H0v-7h34c6.893,0,12.5-5.607,12.5-12.5V0h7v34C53.5,44.752,44.752,53.5,34,53.5z"></path>
</g>
</g></svg></svg>