<svg version="1.1" id="Layer_1" xmlns="http://www.w3.org/2000/svg" xmlns:xlink="http://www.w3.org/1999/xlink" x="0px" y="0px" viewBox="0 0 100 100" xml:space="preserve"><desc>Copyright Opto 22</desc> <svg><g>
<g id="frame">
	<rect fill="none" width="100" height="100"></rect>
</g>
<g id="shape">
	<rect y="40.5" fill="#a9d1f9" width="5.667" height="19"></rect>
	<rect x="94.333" y="40.5" fill="#a9d1f9" width="5.667" height="19"></rect>
	<rect y="42" fill="#a9d1f9" width="100" height="16"></rect>
	<circle fill="#a9d1f9" cx="50" cy="50" r="27.5"></circle>
</g>
<g id="dark">
	<rect y="43.006" fill="#7dabd8" width="100" height="13.988"></rect>
	<circle fill="#7dabd8" cx="50" cy="50" r="26.5"></circle>
</g>
<g id="light">
	<path fill="#c6e2ff" d="M50,28.5c-11.874,0-21.5,9.626-21.5,21.5S38.126,71.5,50,71.5S71.5,61.874,71.5,50S61.874,28.5,50,28.5z
		 M50,70c-11.046,0-20-8.954-20-20s8.954-20,20-20s20,8.954,20,20S61.046,70,50,70z"></path>
	<g fill="#c6e2ff">
		<path fill="#c6e2ff" d="M100,45.004H69.346C69.758,46.604,70,48.272,70,50s-0.242,3.396-0.654,4.996H100V45.004z"></path>
		<path fill="#c6e2ff" d="M30.654,45.004H0v9.992h30.655C30.242,53.396,30,51.728,30,50S30.242,46.604,30.654,45.004z"></path>
		<path fill="#c6e2ff" d="M54.996,69.346V30.654C53.396,30.242,51.728,30,50,30s-3.396,0.242-4.996,0.654v38.691
			C46.604,69.758,48.272,70,50,70S53.396,69.758,54.996,69.346z"></path>
	</g>
</g>
<g id="hlight">
	<path fill="#e0efff" d="M28.5,50c0-1.195,0.122-2.358,0.31-3.5H0v7h28.81C28.622,52.358,28.5,51.195,28.5,50z"></path>
	<path fill="#e0efff" d="M46.5,69.675C47.638,69.876,48.804,70,50,70s2.362-0.124,3.5-0.325V68.97V30.325
		C52.362,30.124,51.196,30,50,30s-2.362,0.124-3.5,0.325V69.16V69.675z"></path>
	<path fill="#e0efff" d="M73.411,46.5h-2.22c0.187,1.142,0.31,2.305,0.31,3.5s-0.122,2.358-0.31,3.5h2.03H100v-7H73.411z"></path>
</g>
</g></svg></svg>