<svg version="1.1" id="Layer_1" xmlns="http://www.w3.org/2000/svg" xmlns:xlink="http://www.w3.org/1999/xlink" x="0px" y="0px" viewBox="0 0 100 100" xml:space="preserve"><desc>Copyright Opto 22</desc> <svg><g>
<g id="frame">
	<rect fill="none" width="100" height="100"></rect>
</g>
<g id="shape">
	<rect y="40.5" fill="#00e30b" width="5.667" height="19"></rect>
	<rect x="94.333" y="40.5" fill="#00e30b" width="5.667" height="19"></rect>
	<rect y="42" fill="#00e30b" width="100" height="16"></rect>
	<circle fill="#00e30b" cx="50" cy="50" r="27.5"></circle>
</g>
<g id="dark">
	<rect y="43.006" fill="#037300" width="100" height="13.988"></rect>
	<circle fill="#037300" cx="50" cy="50" r="26.5"></circle>
</g>
<g id="light">
	<path fill="#96ff94" d="M50,28.5c-11.874,0-21.5,9.626-21.5,21.5S38.126,71.5,50,71.5S71.5,61.874,71.5,50S61.874,28.5,50,28.5z
		 M50,70c-11.046,0-20-8.954-20-20s8.954-20,20-20s20,8.954,20,20S61.046,70,50,70z"></path>
	<rect y="45.004" fill="#96ff94" width="100" height="9.992"></rect>
</g>
<g id="hlight">
	<polygon fill="#ffffff" points="30.839,46.5 0,46.5 0,53.5 31.03,53.5 73.22,53.5 100,53.5 100,46.5 73.411,46.5 		"></polygon>
</g>
</g></svg></svg>