<svg version="1.1" id="Layer_1" xmlns="http://www.w3.org/2000/svg" xmlns:xlink="http://www.w3.org/1999/xlink" x="0px" y="0px" viewBox="0 0 100 100" xml:space="preserve"><desc>Copyright Opto 22</desc> <svg><g>
	<g id="frame">
		<rect fill="none" width="100" height="100"></rect>
	</g>
	<g id="shape">
		<rect x="40.5" fill="#00e30b" width="19" height="5.7"></rect>
		<rect x="40.5" y="94.3" fill="#00e30b" width="19" height="5.7"></rect>
		<rect x="42" fill="#00e30b" width="16" height="100"></rect>
		<circle fill="#00e30b" cx="50" cy="50" r="27.5"></circle>
	</g>
	<g id="dark">
		<rect x="43" fill="#037300" width="14" height="100"></rect>
		<circle fill="#037300" cx="50" cy="50" r="26.5"></circle>
	</g>
	<g id="light">
		<path fill="#96ff94" d="M71.5,50c0-11.9-9.6-21.5-21.5-21.5S28.5,38.1,28.5,50S38.1,71.5,50,71.5S71.5,61.9,71.5,50z M30,50
			c0-11,9-20,20-20s20,9,20,20s-9,20-20,20S30,61,30,50z"></path>
		<rect x="45" fill="#96ff94" width="10" height="100"></rect>
	</g>
	<g id="hlight">
		<polygon fill="#ffffff" points="53.5,30.8 53.5,0 46.5,0 46.5,31 46.5,73.2 46.5,100 53.5,100 53.5,73.4 		"></polygon>
	</g>
</g></svg></svg>