<svg version="1.1" id="Layer_1" xmlns="http://www.w3.org/2000/svg" xmlns:xlink="http://www.w3.org/1999/xlink" x="0px" y="0px" viewBox="0 0 100 100" xml:space="preserve"><desc>Copyright Opto 22</desc> <svg><g>
	<g id="frame">
		<rect fill="none" width="100" height="100"></rect>
	</g>
	<g id="shape">
		<rect x="40.5" fill="#a9d1f9" width="19" height="5.7"></rect>
		<rect x="40.5" y="94.3" fill="#a9d1f9" width="19" height="5.7"></rect>
		<rect x="42" fill="#a9d1f9" width="16" height="100"></rect>
		<circle fill="#a9d1f9" cx="50" cy="50" r="27.5"></circle>
	</g>
	<g id="dark">
		<rect x="43" fill="#7dabd8" width="14" height="100"></rect>
		<circle fill="#7dabd8" cx="50" cy="50" r="26.5"></circle>
	</g>
	<g id="light">
		<path fill="#c6e2ff" d="M71.5,50c0-11.9-9.6-21.5-21.5-21.5S28.5,38.1,28.5,50S38.1,71.5,50,71.5S71.5,61.9,71.5,50z M30,50
			c0-11,9-20,20-20s20,9,20,20s-9,20-20,20S30,61,30,50z"></path>
		<g fill="#c6e2ff">
			<path fill="#c6e2ff" d="M55,100V69.3c-1.6,0.4-3.3,0.7-5,0.7s-3.4-0.2-5-0.7V100H55z"></path>
			<path fill="#c6e2ff" d="M55,30.7V0H45v30.7c1.6-0.4,3.3-0.7,5-0.7S53.4,30.2,55,30.7z"></path>
			<path fill="#c6e2ff" d="M30.7,55h38.7c0.4-1.6,0.7-3.3,0.7-5s-0.2-3.4-0.7-5H30.7c-0.4,1.6-0.7,3.3-0.7,5S30.2,53.4,30.7,55z"></path>
		</g>
	</g>
	<g id="hlight">
		<path fill="#e0efff" d="M50,28.5c1.2,0,2.4,0.1,3.5,0.3V0h-7v28.8C47.6,28.6,48.8,28.5,50,28.5z"></path>
		<path fill="#e0efff" d="M30.3,46.5C30.1,47.6,30,48.8,30,50s0.1,2.4,0.3,3.5H31h38.6c0.2-1.1,0.3-2.3,0.3-3.5s-0.1-2.4-0.3-3.5
			H30.8H30.3z"></path>
		<path fill="#e0efff" d="M53.5,73.4v-2.2c-1.1,0.2-2.3,0.3-3.5,0.3s-2.4-0.1-3.5-0.3v2V100h7V73.4z"></path>
	</g>
</g></svg></svg>